 <svg xmlns="http://www.w3.org/2000/svg" viewBox="0 0 700 285" preserveAspectRatio="xMidYMid meet" width="700pt" height="285pt" version="1.0">
<metadata>
Created by potrace 1.12, written by Peter Selinger 2001-2015
</metadata>
<g fill="#000000" stroke="none" transform="translate(0 285) scale(0.1, -0.1)">
<path d="M 6676 2325 c -20 -30 -21 -106 -2 -143 c 35 -70 44 -161 42 -452 c 0 -157 -5 -291 -10 -298 c -10 -17 -85 -8 -128 14 c -43 22 -89 17 -180 -23 c -98 -43 -116 -62 -147 -152 c -27 -78 -28 -201 -2 -241 c 30 -46 41 -65 56 -97 c 8 -18 28 -39 45 -48 c 16 -8 33 -21 37 -29 c 9 -16 108 -46 152 -46 c 17 0 45 6 63 14 c 60 25 148 49 154 43 c 4 -4 10 -38 13 -76 c 4 -38 12 -75 18 -82 c 6 -8 13 -32 15 -54 c 2 -32 7 -40 23 -40 c 18 0 20 6 18 62 c -1 34 -6 70 -12 81 c -18 34 -25 239 -11 317 c 12 68 16 150 26 550 c 5 190 22 309 61 405 c 7 19 18 62 24 95 c 6 33 13 72 16 87 c 9 45 -5 77 -44 101 c -31 19 -42 22 -64 14 c -21 -8 -33 -7 -53 6 c -39 26 -90 22 -110 -8 Z m -5 -971 c 43 -52 64 -284 34 -375 l -17 -49 l -96 0 c -107 0 -125 7 -178 70 c -52 61 -55 79 -29 153 c 40 115 104 183 184 196 c 28 4 54 11 58 15 c 11 11 30 7 44 -10 Z" />
<path d="M 571 2290 c -13 -11 -30 -20 -37 -20 c -8 0 -26 -7 -40 -17 c -16 -10 -55 -18 -102 -21 c -145 -9 -271 -107 -325 -252 c -18 -49 -23 -115 -8 -124 c 5 -3 12 -18 15 -32 c 13 -52 68 -114 121 -138 c 17 -7 56 -34 88 -60 c 31 -25 63 -46 71 -46 c 7 0 19 -7 26 -16 c 8 -8 27 -21 44 -28 c 56 -25 140 -110 165 -167 c 12 -30 31 -71 42 -91 c 26 -51 26 -146 -1 -195 c -11 -21 -20 -43 -20 -50 c 0 -19 -60 -103 -74 -103 c -7 0 -25 -9 -39 -20 c -22 -17 -40 -20 -135 -20 c -101 0 -111 2 -124 22 c -10 14 -20 19 -32 15 c -28 -11 -15 -47 24 -69 c 30 -16 51 -19 145 -16 c 85 2 116 7 135 21 c 13 9 31 17 40 17 c 15 0 70 61 70 78 c 0 5 9 17 20 27 c 11 10 20 27 20 38 c 0 11 8 29 18 40 c 24 27 24 198 -1 242 c -9 17 -17 40 -17 51 c 0 12 -8 32 -19 45 c -10 13 -22 36 -27 50 c -10 30 -98 113 -163 153 c -24 15 -91 65 -150 110 c -94 73 -108 89 -124 133 c -18 49 -17 49 7 105 c 26 58 68 99 143 137 c 34 17 60 21 133 21 c 89 0 93 -1 133 -33 c 23 -18 54 -38 69 -45 c 21 -9 26 -17 25 -39 c -2 -25 2 -28 32 -31 c 49 -5 63 14 28 40 c -26 19 -27 22 -12 38 c 20 22 5 110 -27 150 c -13 16 -36 49 -51 74 c -31 50 -50 56 -86 26 Z" />
<path d="M 4845 1865 c -64 -52 -67 -56 -60 -78 c 4 -12 9 -69 12 -126 c 6 -117 7 -116 -70 -126 c -51 -7 -117 -39 -117 -57 c 0 -5 5 -18 11 -29 c 10 -19 12 -19 70 13 c 91 48 94 43 95 -133 c 1 -79 6 -227 12 -327 c 10 -173 13 -186 37 -217 c 14 -19 53 -48 86 -65 c 53 -27 70 -30 128 -28 c 58 3 66 5 66 23 c 0 17 -7 20 -57 20 c -102 0 -110 25 -102 319 c 5 168 11 239 25 295 c 10 41 19 85 19 98 c 0 36 36 66 73 60 c 18 -2 40 0 50 5 c 10 5 64 15 120 21 c 79 9 102 15 102 27 c 0 18 -132 39 -232 38 c -96 -1 -100 5 -77 128 c 4 24 -1 41 -26 77 c -60 89 -109 108 -165 62 Z" />
<path d="M 1837 1662 c -37 -38 -35 -77 8 -162 c 41 -81 48 -159 18 -193 c -17 -18 -17 -19 0 -28 c 16 -9 17 -33 13 -322 c -5 -320 -10 -359 -52 -440 c -10 -21 -14 -64 -14 -153 c 0 -115 1 -124 19 -124 c 10 0 29 8 42 19 c 21 17 22 22 11 45 c -21 47 -5 228 26 283 c 6 12 12 33 12 48 c 0 14 7 42 15 61 c 8 20 19 75 25 122 c 6 48 18 113 26 146 c 8 32 18 97 21 145 c 6 76 9 89 34 113 c 19 20 29 42 34 79 c 19 134 165 183 232 76 c 35 -56 55 -155 43 -218 c -9 -48 -52 -119 -72 -119 c -5 0 -21 -9 -35 -20 c -38 -29 -75 -26 -101 10 c -12 16 -22 36 -22 43 c 0 8 -6 20 -14 26 c -12 10 -17 8 -25 -8 c -19 -35 -12 -61 27 -96 c 32 -30 44 -35 89 -35 c 36 0 66 8 100 25 c 57 30 123 91 123 113 c 0 9 9 35 21 59 c 23 48 22 86 -5 183 c -9 30 -16 62 -16 70 c 0 26 -76 121 -117 146 c -44 27 -143 32 -205 10 c -33 -12 -39 -11 -53 4 c -8 9 -15 21 -15 26 c -1 23 -41 58 -86 75 c -65 25 -75 24 -107 -9 Z" />
<path d="M 6357 1683 c -3 -5 -7 -46 -8 -93 l -3 -84 l 32 -10 c 36 -10 62 4 62 36 c 0 11 5 28 11 39 c 16 32 14 77 -6 99 c -18 20 -79 28 -88 13 Z" />
<path d="M 2779 1620 c -63 -8 -124 -45 -196 -120 c -54 -56 -58 -95 -14 -128 c 28 -20 32 -21 96 -7 c 37 7 88 21 114 31 c 56 20 103 14 151 -19 c 48 -32 74 -71 67 -99 c -7 -27 -118 -84 -184 -94 c -55 -8 -96 -34 -132 -85 c -37 -50 -46 -91 -36 -165 c 6 -53 8 -56 60 -90 c 60 -38 127 -46 168 -20 c 12 8 38 17 57 21 c 19 4 61 29 94 56 c 61 49 86 60 86 37 c 0 -7 14 -35 31 -61 c 25 -40 33 -46 45 -37 c 19 17 17 74 -6 140 c -23 64 -25 91 -8 108 c 9 9 8 15 -5 25 c -21 15 -47 106 -47 167 c 0 82 -79 290 -111 290 c -4 0 -20 11 -36 24 c -33 27 -108 38 -194 26 Z m 239 -482 c 39 -39 -16 -132 -108 -181 c -57 -31 -136 -40 -149 -18 c -4 6 -5 32 -1 57 c 9 60 49 99 131 129 c 73 26 110 30 127 13 Z" />
<path d="M 4027 1570 c -41 -27 -85 -63 -97 -80 c -24 -34 -34 -36 -71 -16 c -16 8 -32 10 -40 5 c -8 -5 -24 -9 -37 -9 c -13 0 -54 -18 -92 -40 c -96 -56 -102 -55 -114 20 c -4 24 -17 44 -41 63 l -35 28 l -54 -26 c -30 -15 -57 -33 -60 -42 c -13 -32 -5 -89 17 -123 c 21 -34 22 -41 19 -281 c -3 -237 -2 -246 18 -272 c 29 -37 68 -36 106 4 c 28 29 29 35 40 177 c 20 259 40 320 134 396 c 46 37 71 50 104 53 c 40 5 46 3 82 -37 c 31 -33 44 -41 64 -36 c 37 8 140 34 185 47 c 71 20 157 -17 191 -82 c 19 -37 5 -65 -41 -85 c -19 -7 -36 -18 -39 -23 c -3 -5 -30 -14 -58 -21 c -107 -24 -131 -38 -179 -104 c -26 -34 -29 -47 -29 -110 c 1 -58 5 -76 23 -97 c 31 -37 95 -69 138 -69 c 53 0 145 38 208 84 c 29 23 60 46 68 51 c 17 12 49 -24 61 -70 c 9 -34 29 -42 55 -23 c 16 12 15 20 -13 113 c -16 55 -35 150 -41 210 c -20 190 -98 405 -147 405 c -7 0 -30 9 -52 20 c -29 15 -59 20 -118 20 c -78 0 -80 -1 -155 -50 Z m 353 -435 c 23 -27 5 -86 -36 -122 c -86 -75 -190 -113 -222 -81 c -28 28 -1 126 42 151 c 51 29 144 65 172 66 c 17 1 37 -6 44 -14 Z" />
<path d="M 1137 1550 c -29 -9 -116 -84 -152 -131 c -12 -15 -27 -60 -34 -105 c -15 -84 -10 -124 29 -210 c 11 -23 20 -51 20 -60 c 0 -30 152 -161 246 -212 c 49 -26 119 -29 161 -7 c 15 9 39 20 53 25 c 14 6 32 14 40 19 c 8 5 23 12 34 15 c 14 5 17 12 11 34 c -11 47 -23 49 -56 9 c -30 -37 -31 -37 -103 -37 c -60 0 -82 5 -120 26 c -59 33 -144 128 -152 170 c -12 64 -7 68 86 75 c 53 3 106 14 140 28 c 79 32 110 41 148 41 c 36 0 130 43 149 69 c 35 45 -10 126 -92 166 c -16 8 -54 28 -84 44 c -29 17 -76 35 -103 40 c -57 13 -181 13 -221 1 Z m 250 -138 c 23 -15 19 -46 -9 -60 c -34 -16 -248 -6 -248 12 c 0 5 12 20 28 33 c 24 20 38 22 122 22 c 52 1 100 -3 107 -7 Z" />
<path d="M 5580 1548 c -45 -12 -148 -114 -168 -166 c -22 -61 -33 -125 -28 -162 c 8 -52 70 -195 101 -232 c 32 -38 132 -114 199 -151 c 59 -33 116 -35 171 -7 c 22 11 47 20 56 20 c 9 0 22 6 29 14 c 6 8 23 16 38 18 c 32 4 42 35 15 45 c -10 3 -25 12 -34 20 c -18 15 -34 3 -41 -32 c -3 -18 -12 -20 -79 -23 c -96 -4 -156 23 -221 100 c -54 63 -68 89 -68 120 c 0 38 19 48 91 48 c 51 0 84 7 140 30 c 41 16 104 34 141 39 c 37 5 80 16 95 24 c 15 9 36 18 46 21 c 13 4 17 17 17 60 c 0 48 -4 59 -31 87 c -36 37 -163 105 -234 125 c -56 15 -181 17 -235 2 Z m 260 -149 c 7 -11 9 -27 6 -34 c -7 -20 -77 -28 -177 -20 c -97 8 -110 19 -66 56 c 18 15 39 18 124 19 c 94 0 103 -2 113 -21 Z" />
<path d="M 5263 1430 c -31 -12 -29 -38 3 -46 c 29 -8 47 6 42 32 c -4 22 -16 25 -45 14 Z" />
<path d="M 1724 1185 c -4 -9 -2 -21 4 -27 c 16 -16 47 -5 47 17 c 0 26 -42 34 -51 10 Z" />
<path d="M 1772 633 c 2 -10 10 -18 18 -18 c 22 0 18 29 -3 33 c -14 3 -18 -1 -15 -15 Z" />
</g>
</svg>