<?xml version="1.0" standalone="no"?>
<!DOCTYPE svg PUBLIC "-//W3C//DTD SVG 20010904//EN"
 "http://www.w3.org/TR/2001/REC-SVG-20010904/DTD/svg10.dtd">
<svg version="1.0" xmlns="http://www.w3.org/2000/svg"
 width="202.000000pt" height="202.000000pt" viewBox="0 0 202.000000 202.000000"
 preserveAspectRatio="xMidYMid meet">
<metadata>
Created by potrace 1.11, written by Peter Selinger 2001-2013
</metadata>
<g transform="translate(0.000000,202.000000) scale(0.100000,-0.100000)"
fill="#000000" stroke="none">
<path d="M938 1665 c-286 -72 -488 -325 -488 -610 0 -70 7 -111 36 -211 4 -16
0 -23 -16 -27 -12 -3 -24 -15 -27 -26 -3 -12 -14 -21 -24 -21 -10 0 -24 -9
-31 -20 -7 -11 -20 -20 -30 -20 -9 0 -23 -8 -30 -18 -7 -10 -26 -22 -41 -26
-37 -9 -62 -63 -47 -102 18 -47 79 -121 110 -134 39 -16 88 2 96 36 3 13 10
21 15 18 13 -8 49 15 49 31 0 8 8 15 19 15 10 0 24 7 31 15 7 8 21 15 31 15
10 0 22 8 27 17 9 14 18 10 73 -32 132 -100 263 -140 429 -132 177 8 305 64
430 188 115 115 180 269 180 431 0 107 -15 168 -66 275 -72 151 -198 261 -366
320 -91 33 -268 41 -360 18z m267 -80 c217 -46 386 -211 430 -422 18 -86 18
-130 0 -218 -44 -208 -214 -375 -430 -420 -88 -18 -142 -18 -230 0 -107 23
-208 77 -284 154 -260 261 -188 692 144 857 122 60 241 76 370 49z"/>
<path d="M986 1500 c-146 -37 -235 -131 -236 -246 0 -102 37 -166 211 -361
134 -151 149 -171 149 -199 0 -33 -33 -47 -99 -42 -67 5 -136 36 -198 89 -48
42 -61 47 -69 25 -9 -24 13 -52 68 -88 97 -64 208 -87 328 -69 188 30 307 143
285 275 -14 89 -49 140 -253 364 -92 102 -127 157 -116 186 18 48 144 35 232
-24 54 -37 82 -42 82 -14 0 19 -61 65 -117 87 -56 22 -206 32 -267 17z"/>
</g>
</svg>
